inDegrees=yes
DataType=double
version=3
OpenSimVersion=4.5-2023-11-26-efcdfd3eb
endheader
time	pelvis_tilt	pelvis_tx	pelvis_ty	hip_flexion_r	hip_flexion_l	lumbar_ext	knee_angle_r	knee_angle_l	ankle_angle_r	ankle_angle_l
0.95	-2.730984023605953	-0.009203468435611388	0.8217034863412906	-9.07943538454219	29.50810225714488	-5.815514228607891	-19.85254399080106	-9.908184574755357	12.24724940032306	-6.57539655997266
0.9604999999999999	-2.892835873166788	0.002792912131122793	0.8203348785723261	-9.11974783975365	29.4238882960744	-5.846603226399246	-20.28780818740232	-10.17861914767557	12.07187268825103	-6.506928234506803
0.971	-2.993060595638869	0.01534737797165788	0.8194935946475911	-9.086286927796586	29.26368228857401	-5.826004518232813	-21.37630480369328	-10.75718147863808	11.59974015104766	-6.503604636764845
0.9814999999999999	-3.044271690605441	0.02839621995645774	0.8192164545256502	-8.921068682824842	28.97526074982722	-5.751052912231968	-23.06427076587191	-11.54432083886535	10.88645417754225	-6.46115469925522
0.992	-3.052868494620391	0.04166557784055139	0.819434991285261	-8.580318851147597	28.57457256780813	-5.67774781684962	-25.24254070891675	-12.44437678485654	9.937194682248458	-6.254355380098044
1.0025	-3.030924360425225	0.05485137347884874	0.8200730412750601	-8.012127423502967	28.10634892118035	-5.658396020963126	-27.81521525438494	-13.3448746705339	8.81030660913869	-6.084309581091998
1.013	-2.979189939449613	0.0678669763163207	0.8210757817143575	-7.206404983881542	27.56588007512813	-5.704655212466077	-30.73284181174032	-14.18975278817788	7.600906278220489	-5.860897387220692
1.0235	-2.898149608319935	0.08067194894064704	0.8223818522672078	-6.16370941401938	26.94117022487395	-5.816619342677242	-33.94451439467353	-14.95749107836498	6.237881896658174	-5.496201660245327
1.034	-2.798877099501714	0.09319142887337517	0.8238855979248867	-4.884036083153089	26.23736699596829	-5.988432410285436	-37.39253935846737	-15.62539036848022	4.973428617226467	-5.033130447888336
1.0445	-2.690963930077011	0.1053531760530002	0.8254878940861277	-3.379967587881069	25.46060599506276	-6.21603097533001	-40.98886489839658	-16.1602803334483	3.66657274558218	-4.546869355766423
1.055	-2.579688597697409	0.1171124099649751	0.8271318978066442	-1.671808067789188	24.6250312759847	-6.495896794768822	-44.68429419809383	-16.55426194755351	2.462447089951453	-4.000662185386841
1.0655	-2.467875636296579	0.1284480165654548	0.8287896622052531	0.2145938237640815	23.74459049282808	-6.823416140081133	-48.41849493935452	-16.810535630081	1.671049422821134	-3.389141149560134
1.076	-2.358435916879299	0.1394109416757223	0.8304675041145314	2.245430481998051	22.82050384891626	-7.181698889698425	-52.07296116576134	-16.92836150450625	0.7615754694038694	-2.762785549237349
1.0865	-2.254607638949796	0.1500679214307507	0.8321698162515188	4.390145853792592	21.8483976162117	-7.552599104969409	-55.61185422318641	-16.90434700434189	0.1351893103440251	-2.114222963545828
1.097	-2.159324138426138	0.1604548775079205	0.8339130121780612	6.623392740142608	20.83359578366782	-7.929784377148504	-58.96848026626937	-16.74858189481966	-0.09454508412919375	-1.454882317869938
1.1075	-2.076531921482907	0.1706056941652599	0.8357071769657076	8.919778406510087	19.78407207582845	-8.306855878257128	-62.02977161864037	-16.4723157459886	-0.4334028993751199	-0.8101215389519614
1.118	-2.007553609795737	0.1805881499100199	0.8375363935662875	11.2434152282821	18.70037604138112	-8.672339706862632	-64.75526814566052	-16.08286378759009	-0.6846313708904738	-0.1835382788121704
1.1285	-1.952342280037437	0.1904741213407492	0.8393851603908941	13.5580996145513	17.58215469802735	-9.015109186341403	-67.11496913626242	-15.58816425544495	-0.700829776531752	0.4242622718177171
1.139	-1.911589916077353	0.2003229271655276	0.8412385893112148	15.83617238067221	16.43122658468898	-9.325562203338119	-69.0663468986543	-15.00238870545154	-0.5904150473291947	1.00887303139236
1.1495	-1.886321923777013	0.2101887511037264	0.8430763952049894	18.05180584272527	15.24955924441796	-9.594664860630994	-70.57152326046196	-14.33930922882966	-0.440218985072574	1.558366549660395
